<mxfile host="app.diagrams.net" agent="Mozilla/5.0 (Windows NT 10.0; Win64; x64) AppleWebKit/537.36 (KHTML, like Gecko) Chrome/133.0.0.0 Safari/537.36" version="26.0.16">
  <diagram id="vZv2f6N4h2fVlUgS8-mH" name="Page-1">
    <mxGraphModel dx="2796" dy="918" grid="1" gridSize="10" guides="1" tooltips="1" connect="1" arrows="1" fold="1" page="1" pageScale="1" pageWidth="827" pageHeight="1169" math="0" shadow="0">
      <root>
        <mxCell id="0" />
        <mxCell id="1" parent="0" />
        <mxCell id="qDmh4E7eHORQxxPNip07-1" value="&lt;p style=&quot;margin:0px;margin-top:4px;text-align:center;&quot;&gt;&lt;i&gt;&amp;lt;&amp;lt;Interface&amp;gt;&amp;gt;&lt;/i&gt;&lt;br&gt;&lt;b&gt;Type&lt;/b&gt;&lt;/p&gt;&lt;hr size=&quot;1&quot; style=&quot;border-style:solid;&quot;&gt;&lt;p style=&quot;margin:0px;margin-left:4px;&quot;&gt;&lt;br&gt;&lt;/p&gt;" style="verticalAlign=top;align=left;overflow=fill;html=1;whiteSpace=wrap;" parent="1" vertex="1">
          <mxGeometry x="340" y="160" width="190" height="40" as="geometry" />
        </mxCell>
        <mxCell id="m8TIpPy7Mk842vxSw2Hj-17" value="Array" style="swimlane;fontStyle=1;align=center;verticalAlign=top;childLayout=stackLayout;horizontal=1;startSize=26;horizontalStack=0;resizeParent=1;resizeParentMax=0;resizeLast=0;collapsible=1;marginBottom=0;" parent="1" vertex="1">
          <mxGeometry x="173" y="340" width="167" height="60" as="geometry" />
        </mxCell>
        <mxCell id="t9cNxtIbSkjLACaHrAch-34" value="+ size: int" style="text;strokeColor=none;fillColor=none;align=left;verticalAlign=top;spacingLeft=4;spacingRight=4;overflow=hidden;rotatable=0;points=[[0,0.5],[1,0.5]];portConstraint=eastwest;" parent="m8TIpPy7Mk842vxSw2Hj-17" vertex="1">
          <mxGeometry y="26" width="167" height="26" as="geometry" />
        </mxCell>
        <mxCell id="m8TIpPy7Mk842vxSw2Hj-19" value="" style="line;strokeWidth=1;fillColor=none;align=left;verticalAlign=middle;spacingTop=-1;spacingLeft=3;spacingRight=3;rotatable=0;labelPosition=right;points=[];portConstraint=eastwest;" parent="m8TIpPy7Mk842vxSw2Hj-17" vertex="1">
          <mxGeometry y="52" width="167" height="8" as="geometry" />
        </mxCell>
        <mxCell id="m8TIpPy7Mk842vxSw2Hj-21" value="Function" style="swimlane;fontStyle=1;align=center;verticalAlign=top;childLayout=stackLayout;horizontal=1;startSize=26;horizontalStack=0;resizeParent=1;resizeParentMax=0;resizeLast=0;collapsible=1;marginBottom=0;" parent="1" vertex="1">
          <mxGeometry x="351.5" y="340" width="167" height="34" as="geometry" />
        </mxCell>
        <mxCell id="m8TIpPy7Mk842vxSw2Hj-23" value="" style="line;strokeWidth=1;fillColor=none;align=left;verticalAlign=middle;spacingTop=-1;spacingLeft=3;spacingRight=3;rotatable=0;labelPosition=right;points=[];portConstraint=eastwest;" parent="m8TIpPy7Mk842vxSw2Hj-21" vertex="1">
          <mxGeometry y="26" width="167" height="8" as="geometry" />
        </mxCell>
        <mxCell id="m8TIpPy7Mk842vxSw2Hj-24" value="Struct" style="swimlane;fontStyle=1;align=center;verticalAlign=top;childLayout=stackLayout;horizontal=1;startSize=26;horizontalStack=0;resizeParent=1;resizeParentMax=0;resizeLast=0;collapsible=1;marginBottom=0;" parent="1" vertex="1">
          <mxGeometry x="-10" y="340" width="167" height="34" as="geometry" />
        </mxCell>
        <mxCell id="m8TIpPy7Mk842vxSw2Hj-26" value="" style="line;strokeWidth=1;fillColor=none;align=left;verticalAlign=middle;spacingTop=-1;spacingLeft=3;spacingRight=3;rotatable=0;labelPosition=right;points=[];portConstraint=eastwest;" parent="m8TIpPy7Mk842vxSw2Hj-24" vertex="1">
          <mxGeometry y="26" width="167" height="8" as="geometry" />
        </mxCell>
        <mxCell id="m8TIpPy7Mk842vxSw2Hj-27" value="1..*" style="endArrow=open;html=1;endSize=12;startArrow=diamondThin;startSize=14;startFill=0;edgeStyle=orthogonalEdgeStyle;align=left;verticalAlign=bottom;exitX=0.5;exitY=1;exitDx=0;exitDy=0;entryX=0.5;entryY=1;entryDx=0;entryDy=0;" parent="1" source="m8TIpPy7Mk842vxSw2Hj-24" target="t9cNxtIbSkjLACaHrAch-37" edge="1">
          <mxGeometry x="0.8346" relative="1" as="geometry">
            <mxPoint x="110" y="480" as="sourcePoint" />
            <mxPoint x="270" y="480" as="targetPoint" />
            <mxPoint as="offset" />
            <Array as="points">
              <mxPoint x="74" y="400" />
              <mxPoint x="-40" y="400" />
              <mxPoint x="-40" y="320" />
              <mxPoint x="74" y="320" />
            </Array>
          </mxGeometry>
        </mxCell>
        <mxCell id="m8TIpPy7Mk842vxSw2Hj-31" value="" style="endArrow=block;dashed=1;endFill=0;endSize=12;html=1;entryX=0.5;entryY=1;entryDx=0;entryDy=0;exitX=0.5;exitY=0;exitDx=0;exitDy=0;" parent="1" source="m8TIpPy7Mk842vxSw2Hj-24" target="qDmh4E7eHORQxxPNip07-1" edge="1">
          <mxGeometry width="160" relative="1" as="geometry">
            <mxPoint x="180" y="240" as="sourcePoint" />
            <mxPoint x="340" y="240" as="targetPoint" />
          </mxGeometry>
        </mxCell>
        <mxCell id="m8TIpPy7Mk842vxSw2Hj-33" value="" style="endArrow=block;dashed=1;endFill=0;endSize=12;html=1;entryX=0.5;entryY=1;entryDx=0;entryDy=0;exitX=0.5;exitY=0;exitDx=0;exitDy=0;" parent="1" source="m8TIpPy7Mk842vxSw2Hj-17" target="qDmh4E7eHORQxxPNip07-1" edge="1">
          <mxGeometry width="160" relative="1" as="geometry">
            <mxPoint x="624" y="350" as="sourcePoint" />
            <mxPoint x="445" y="210" as="targetPoint" />
          </mxGeometry>
        </mxCell>
        <mxCell id="m8TIpPy7Mk842vxSw2Hj-34" value="" style="endArrow=block;dashed=1;endFill=0;endSize=12;html=1;exitX=0.5;exitY=0;exitDx=0;exitDy=0;entryX=0.5;entryY=1;entryDx=0;entryDy=0;" parent="1" source="m8TIpPy7Mk842vxSw2Hj-21" target="qDmh4E7eHORQxxPNip07-1" edge="1">
          <mxGeometry width="160" relative="1" as="geometry">
            <mxPoint x="445" y="350" as="sourcePoint" />
            <mxPoint x="445" y="210" as="targetPoint" />
          </mxGeometry>
        </mxCell>
        <mxCell id="m8TIpPy7Mk842vxSw2Hj-36" value="1" style="endArrow=open;html=1;endSize=12;startArrow=diamondThin;startSize=14;startFill=0;edgeStyle=orthogonalEdgeStyle;align=left;verticalAlign=bottom;exitX=0.5;exitY=1;exitDx=0;exitDy=0;entryX=0;entryY=0.25;entryDx=0;entryDy=0;" parent="1" source="m8TIpPy7Mk842vxSw2Hj-17" target="qDmh4E7eHORQxxPNip07-1" edge="1">
          <mxGeometry x="0.9287" relative="1" as="geometry">
            <mxPoint x="84" y="384" as="sourcePoint" />
            <mxPoint x="90" y="460" as="targetPoint" />
            <mxPoint as="offset" />
            <Array as="points">
              <mxPoint x="256" y="440" />
              <mxPoint x="-60" y="440" />
              <mxPoint x="-60" y="170" />
            </Array>
          </mxGeometry>
        </mxCell>
        <mxCell id="m8TIpPy7Mk842vxSw2Hj-38" value="" style="endArrow=open;html=1;endSize=12;startArrow=diamondThin;startSize=14;startFill=0;edgeStyle=orthogonalEdgeStyle;align=left;verticalAlign=bottom;exitX=0.5;exitY=1;exitDx=0;exitDy=0;" parent="1" source="m8TIpPy7Mk842vxSw2Hj-21" edge="1">
          <mxGeometry x="0.803" relative="1" as="geometry">
            <mxPoint x="445" y="384" as="sourcePoint" />
            <mxPoint x="340" y="170" as="targetPoint" />
            <mxPoint as="offset" />
            <Array as="points">
              <mxPoint x="435" y="440" />
              <mxPoint x="-60" y="440" />
              <mxPoint x="-60" y="170" />
            </Array>
          </mxGeometry>
        </mxCell>
        <mxCell id="m8TIpPy7Mk842vxSw2Hj-39" value="&lt;p style=&quot;margin:0px;margin-top:4px;text-align:center;&quot;&gt;&lt;i&gt;&amp;lt;&amp;lt;Interface&amp;gt;&amp;gt;&lt;/i&gt;&lt;br&gt;&lt;b&gt;ASTNode&lt;/b&gt;&lt;/p&gt;&lt;hr size=&quot;1&quot; style=&quot;border-style:solid;&quot;&gt;&lt;p style=&quot;margin:0px;margin-left:4px;&quot;&gt;&lt;br&gt;&lt;/p&gt;" style="verticalAlign=top;align=left;overflow=fill;html=1;whiteSpace=wrap;" parent="1" vertex="1">
          <mxGeometry x="187" y="70" width="190" height="40" as="geometry" />
        </mxCell>
        <mxCell id="m8TIpPy7Mk842vxSw2Hj-43" value="" style="endArrow=block;endSize=16;endFill=0;html=1;entryX=1;entryY=0.5;entryDx=0;entryDy=0;exitX=0.5;exitY=0;exitDx=0;exitDy=0;" parent="1" source="qDmh4E7eHORQxxPNip07-1" target="m8TIpPy7Mk842vxSw2Hj-39" edge="1">
          <mxGeometry width="160" relative="1" as="geometry">
            <mxPoint x="556.5" y="30" as="sourcePoint" />
            <mxPoint x="377" y="90" as="targetPoint" />
            <Array as="points">
              <mxPoint x="435" y="90" />
            </Array>
          </mxGeometry>
        </mxCell>
        <mxCell id="t9cNxtIbSkjLACaHrAch-2" value="Char" style="swimlane;fontStyle=1;align=center;verticalAlign=top;childLayout=stackLayout;horizontal=1;startSize=26;horizontalStack=0;resizeParent=1;resizeParentMax=0;resizeLast=0;collapsible=1;marginBottom=0;" parent="1" vertex="1">
          <mxGeometry x="720" y="340" width="167" height="34" as="geometry" />
        </mxCell>
        <mxCell id="t9cNxtIbSkjLACaHrAch-4" value="" style="line;strokeWidth=1;fillColor=none;align=left;verticalAlign=middle;spacingTop=-1;spacingLeft=3;spacingRight=3;rotatable=0;labelPosition=right;points=[];portConstraint=eastwest;" parent="t9cNxtIbSkjLACaHrAch-2" vertex="1">
          <mxGeometry y="26" width="167" height="8" as="geometry" />
        </mxCell>
        <mxCell id="t9cNxtIbSkjLACaHrAch-5" value="Int" style="swimlane;fontStyle=1;align=center;verticalAlign=top;childLayout=stackLayout;horizontal=1;startSize=26;horizontalStack=0;resizeParent=1;resizeParentMax=0;resizeLast=0;collapsible=1;marginBottom=0;" parent="1" vertex="1">
          <mxGeometry x="900" y="340" width="167" height="34" as="geometry" />
        </mxCell>
        <mxCell id="t9cNxtIbSkjLACaHrAch-7" value="" style="line;strokeWidth=1;fillColor=none;align=left;verticalAlign=middle;spacingTop=-1;spacingLeft=3;spacingRight=3;rotatable=0;labelPosition=right;points=[];portConstraint=eastwest;" parent="t9cNxtIbSkjLACaHrAch-5" vertex="1">
          <mxGeometry y="26" width="167" height="8" as="geometry" />
        </mxCell>
        <mxCell id="t9cNxtIbSkjLACaHrAch-8" value="Real" style="swimlane;fontStyle=1;align=center;verticalAlign=top;childLayout=stackLayout;horizontal=1;startSize=26;horizontalStack=0;resizeParent=1;resizeParentMax=0;resizeLast=0;collapsible=1;marginBottom=0;" parent="1" vertex="1">
          <mxGeometry x="1080" y="340" width="167" height="34" as="geometry" />
        </mxCell>
        <mxCell id="t9cNxtIbSkjLACaHrAch-10" value="" style="line;strokeWidth=1;fillColor=none;align=left;verticalAlign=middle;spacingTop=-1;spacingLeft=3;spacingRight=3;rotatable=0;labelPosition=right;points=[];portConstraint=eastwest;" parent="t9cNxtIbSkjLACaHrAch-8" vertex="1">
          <mxGeometry y="26" width="167" height="8" as="geometry" />
        </mxCell>
        <mxCell id="t9cNxtIbSkjLACaHrAch-14" value="" style="endArrow=block;dashed=1;endFill=0;endSize=12;html=1;entryX=0.5;entryY=1;entryDx=0;entryDy=0;exitX=0.5;exitY=0;exitDx=0;exitDy=0;" parent="1" source="t9cNxtIbSkjLACaHrAch-2" target="qDmh4E7eHORQxxPNip07-1" edge="1">
          <mxGeometry width="160" relative="1" as="geometry">
            <mxPoint x="624" y="350" as="sourcePoint" />
            <mxPoint x="445" y="210" as="targetPoint" />
          </mxGeometry>
        </mxCell>
        <mxCell id="t9cNxtIbSkjLACaHrAch-15" value="" style="endArrow=block;dashed=1;endFill=0;endSize=12;html=1;entryX=0.5;entryY=1;entryDx=0;entryDy=0;exitX=0.5;exitY=0;exitDx=0;exitDy=0;" parent="1" source="t9cNxtIbSkjLACaHrAch-5" target="qDmh4E7eHORQxxPNip07-1" edge="1">
          <mxGeometry width="160" relative="1" as="geometry">
            <mxPoint x="814" y="350" as="sourcePoint" />
            <mxPoint x="445" y="210" as="targetPoint" />
          </mxGeometry>
        </mxCell>
        <mxCell id="t9cNxtIbSkjLACaHrAch-16" value="" style="endArrow=block;dashed=1;endFill=0;endSize=12;html=1;entryX=0.5;entryY=1;entryDx=0;entryDy=0;exitX=0.5;exitY=0;exitDx=0;exitDy=0;" parent="1" source="t9cNxtIbSkjLACaHrAch-8" target="qDmh4E7eHORQxxPNip07-1" edge="1">
          <mxGeometry width="160" relative="1" as="geometry">
            <mxPoint x="994" y="350" as="sourcePoint" />
            <mxPoint x="445" y="210" as="targetPoint" />
          </mxGeometry>
        </mxCell>
        <mxCell id="t9cNxtIbSkjLACaHrAch-17" value="Void" style="swimlane;fontStyle=1;align=center;verticalAlign=top;childLayout=stackLayout;horizontal=1;startSize=26;horizontalStack=0;resizeParent=1;resizeParentMax=0;resizeLast=0;collapsible=1;marginBottom=0;" parent="1" vertex="1">
          <mxGeometry x="540" y="340" width="167" height="34" as="geometry" />
        </mxCell>
        <mxCell id="t9cNxtIbSkjLACaHrAch-18" value="" style="line;strokeWidth=1;fillColor=none;align=left;verticalAlign=middle;spacingTop=-1;spacingLeft=3;spacingRight=3;rotatable=0;labelPosition=right;points=[];portConstraint=eastwest;" parent="t9cNxtIbSkjLACaHrAch-17" vertex="1">
          <mxGeometry y="26" width="167" height="8" as="geometry" />
        </mxCell>
        <mxCell id="t9cNxtIbSkjLACaHrAch-20" value="" style="endArrow=block;dashed=1;endFill=0;endSize=12;html=1;entryX=0.5;entryY=1;entryDx=0;entryDy=0;exitX=0.5;exitY=0;exitDx=0;exitDy=0;" parent="1" source="t9cNxtIbSkjLACaHrAch-17" target="qDmh4E7eHORQxxPNip07-1" edge="1">
          <mxGeometry width="160" relative="1" as="geometry">
            <mxPoint x="814" y="350" as="sourcePoint" />
            <mxPoint x="445" y="210" as="targetPoint" />
          </mxGeometry>
        </mxCell>
        <mxCell id="t9cNxtIbSkjLACaHrAch-21" value="returnType" style="text;html=1;align=center;verticalAlign=middle;resizable=0;points=[];autosize=1;strokeColor=none;fillColor=none;" parent="1" vertex="1">
          <mxGeometry x="330" y="420" width="80" height="30" as="geometry" />
        </mxCell>
        <mxCell id="t9cNxtIbSkjLACaHrAch-22" value="Good" style="text;html=1;align=center;verticalAlign=middle;resizable=0;points=[];autosize=1;strokeColor=none;fillColor=none;" parent="1" vertex="1">
          <mxGeometry x="555" y="368" width="50" height="30" as="geometry" />
        </mxCell>
        <mxCell id="t9cNxtIbSkjLACaHrAch-23" value="Good" style="text;html=1;align=center;verticalAlign=middle;resizable=0;points=[];autosize=1;strokeColor=none;fillColor=none;" parent="1" vertex="1">
          <mxGeometry x="720" y="368" width="50" height="30" as="geometry" />
        </mxCell>
        <mxCell id="t9cNxtIbSkjLACaHrAch-24" value="Good" style="text;html=1;align=center;verticalAlign=middle;resizable=0;points=[];autosize=1;strokeColor=none;fillColor=none;" parent="1" vertex="1">
          <mxGeometry x="900" y="368" width="50" height="30" as="geometry" />
        </mxCell>
        <mxCell id="t9cNxtIbSkjLACaHrAch-25" value="Good" style="text;html=1;align=center;verticalAlign=middle;resizable=0;points=[];autosize=1;strokeColor=none;fillColor=none;" parent="1" vertex="1">
          <mxGeometry x="1080" y="368" width="50" height="30" as="geometry" />
        </mxCell>
        <mxCell id="t9cNxtIbSkjLACaHrAch-26" value="Good" style="text;html=1;align=center;verticalAlign=middle;resizable=0;points=[];autosize=1;strokeColor=none;fillColor=none;" parent="1" vertex="1">
          <mxGeometry x="351.5" y="368" width="50" height="30" as="geometry" />
        </mxCell>
        <mxCell id="t9cNxtIbSkjLACaHrAch-27" value="" style="endArrow=open;html=1;endSize=12;startArrow=diamondThin;startSize=14;startFill=0;edgeStyle=orthogonalEdgeStyle;align=left;verticalAlign=bottom;exitX=0.75;exitY=1;exitDx=0;exitDy=0;" parent="1" source="m8TIpPy7Mk842vxSw2Hj-21" target="t9cNxtIbSkjLACaHrAch-30" edge="1">
          <mxGeometry x="0.803" relative="1" as="geometry">
            <mxPoint x="445" y="380" as="sourcePoint" />
            <mxPoint x="460" y="510" as="targetPoint" />
            <mxPoint as="offset" />
            <Array as="points">
              <mxPoint x="477" y="490" />
              <mxPoint x="477" y="490" />
            </Array>
          </mxGeometry>
        </mxCell>
        <mxCell id="t9cNxtIbSkjLACaHrAch-28" value="*" style="edgeLabel;html=1;align=center;verticalAlign=middle;resizable=0;points=[];" parent="t9cNxtIbSkjLACaHrAch-27" connectable="0" vertex="1">
          <mxGeometry x="0.9445" relative="1" as="geometry">
            <mxPoint x="8" y="-14" as="offset" />
          </mxGeometry>
        </mxCell>
        <mxCell id="t9cNxtIbSkjLACaHrAch-29" value="params" style="text;html=1;align=center;verticalAlign=middle;resizable=0;points=[];autosize=1;strokeColor=none;fillColor=none;" parent="1" vertex="1">
          <mxGeometry x="491.5" y="430" width="60" height="30" as="geometry" />
        </mxCell>
        <mxCell id="t9cNxtIbSkjLACaHrAch-30" value="VariableDefinition" style="swimlane;fontStyle=1;align=center;verticalAlign=top;childLayout=stackLayout;horizontal=1;startSize=26;horizontalStack=0;resizeParent=1;resizeParentMax=0;resizeLast=0;collapsible=1;marginBottom=0;" parent="1" vertex="1">
          <mxGeometry x="438" y="540" width="167" height="34" as="geometry" />
        </mxCell>
        <mxCell id="t9cNxtIbSkjLACaHrAch-31" value="" style="line;strokeWidth=1;fillColor=none;align=left;verticalAlign=middle;spacingTop=-1;spacingLeft=3;spacingRight=3;rotatable=0;labelPosition=right;points=[];portConstraint=eastwest;" parent="t9cNxtIbSkjLACaHrAch-30" vertex="1">
          <mxGeometry y="26" width="167" height="8" as="geometry" />
        </mxCell>
        <mxCell id="t9cNxtIbSkjLACaHrAch-33" value="type" style="text;html=1;align=center;verticalAlign=middle;resizable=0;points=[];autosize=1;strokeColor=none;fillColor=none;" parent="1" vertex="1">
          <mxGeometry x="80" y="150" width="50" height="30" as="geometry" />
        </mxCell>
        <mxCell id="t9cNxtIbSkjLACaHrAch-35" value="Good" style="text;html=1;align=center;verticalAlign=middle;resizable=0;points=[];autosize=1;strokeColor=none;fillColor=none;" parent="1" vertex="1">
          <mxGeometry x="173" y="390" width="50" height="30" as="geometry" />
        </mxCell>
        <mxCell id="t9cNxtIbSkjLACaHrAch-36" value="(composite design pattern)" style="text;html=1;align=center;verticalAlign=middle;resizable=0;points=[];autosize=1;strokeColor=none;fillColor=none;" parent="1" vertex="1">
          <mxGeometry x="175" y="320" width="170" height="30" as="geometry" />
        </mxCell>
        <mxCell id="t9cNxtIbSkjLACaHrAch-37" value="StructField" style="swimlane;fontStyle=1;align=center;verticalAlign=top;childLayout=stackLayout;horizontal=1;startSize=26;horizontalStack=0;resizeParent=1;resizeParentMax=0;resizeLast=0;collapsible=1;marginBottom=0;" parent="1" vertex="1">
          <mxGeometry x="-10" y="230" width="167" height="60" as="geometry" />
        </mxCell>
        <mxCell id="t9cNxtIbSkjLACaHrAch-40" value="+ name: String" style="text;strokeColor=none;fillColor=none;align=left;verticalAlign=top;spacingLeft=4;spacingRight=4;overflow=hidden;rotatable=0;points=[[0,0.5],[1,0.5]];portConstraint=eastwest;" parent="t9cNxtIbSkjLACaHrAch-37" vertex="1">
          <mxGeometry y="26" width="167" height="26" as="geometry" />
        </mxCell>
        <mxCell id="t9cNxtIbSkjLACaHrAch-38" value="" style="line;strokeWidth=1;fillColor=none;align=left;verticalAlign=middle;spacingTop=-1;spacingLeft=3;spacingRight=3;rotatable=0;labelPosition=right;points=[];portConstraint=eastwest;" parent="t9cNxtIbSkjLACaHrAch-37" vertex="1">
          <mxGeometry y="52" width="167" height="8" as="geometry" />
        </mxCell>
        <mxCell id="t9cNxtIbSkjLACaHrAch-42" value="" style="endArrow=open;html=1;endSize=12;startArrow=diamondThin;startSize=14;startFill=0;edgeStyle=orthogonalEdgeStyle;align=left;verticalAlign=bottom;exitX=0.5;exitY=0;exitDx=0;exitDy=0;entryX=0;entryY=0.25;entryDx=0;entryDy=0;" parent="1" source="t9cNxtIbSkjLACaHrAch-37" target="qDmh4E7eHORQxxPNip07-1" edge="1">
          <mxGeometry x="0.9287" relative="1" as="geometry">
            <mxPoint x="266" y="410" as="sourcePoint" />
            <mxPoint x="350" y="180" as="targetPoint" />
            <mxPoint as="offset" />
            <Array as="points">
              <mxPoint x="74" y="170" />
            </Array>
          </mxGeometry>
        </mxCell>
        <mxCell id="t9cNxtIbSkjLACaHrAch-44" value="fields" style="text;html=1;align=center;verticalAlign=middle;resizable=0;points=[];autosize=1;strokeColor=none;fillColor=none;" parent="1" vertex="1">
          <mxGeometry x="-20" y="300" width="50" height="30" as="geometry" />
        </mxCell>
        <mxCell id="t9cNxtIbSkjLACaHrAch-45" value="Good" style="text;html=1;align=center;verticalAlign=middle;resizable=0;points=[];autosize=1;strokeColor=none;fillColor=none;" parent="1" vertex="1">
          <mxGeometry x="-10" y="368" width="50" height="30" as="geometry" />
        </mxCell>
        <mxCell id="t9cNxtIbSkjLACaHrAch-46" value="(because fields cannot be used as variables)" style="text;html=1;align=center;verticalAlign=middle;resizable=0;points=[];autosize=1;strokeColor=none;fillColor=none;" parent="1" vertex="1">
          <mxGeometry x="68" y="200" width="260" height="30" as="geometry" />
        </mxCell>
        <mxCell id="t9cNxtIbSkjLACaHrAch-47" value="Good" style="text;html=1;align=center;verticalAlign=middle;resizable=0;points=[];autosize=1;strokeColor=none;fillColor=none;" parent="1" vertex="1">
          <mxGeometry x="-10" y="210" width="50" height="30" as="geometry" />
        </mxCell>
        <mxCell id="m72kVHN5zDNY4WgHaptw-1" value="" style="endArrow=block;dashed=1;endFill=0;endSize=12;html=1;entryX=0;entryY=0.5;entryDx=0;entryDy=0;exitX=0.25;exitY=0;exitDx=0;exitDy=0;" parent="1" source="t9cNxtIbSkjLACaHrAch-37" target="m8TIpPy7Mk842vxSw2Hj-39" edge="1">
          <mxGeometry width="160" relative="1" as="geometry">
            <mxPoint x="84" y="350" as="sourcePoint" />
            <mxPoint x="445" y="210" as="targetPoint" />
            <Array as="points">
              <mxPoint x="30" y="90" />
            </Array>
          </mxGeometry>
        </mxCell>
      </root>
    </mxGraphModel>
  </diagram>
</mxfile>
